<svg width="439" height="236" viewBox="0 0 439 236" fill="none" xmlns="http://www.w3.org/2000/svg">
<path d="M410.421 125.471C410.515 123.566 410.563 121.648 410.564 119.716C410.564 56.1309 359.05 4.58348 295.508 4.58348C279.848 4.56363 264.35 7.75416 249.969 13.9583C243.981 5.51536 234.131 0 222.995 0C209.983 0 198.729 7.52584 193.338 18.469C192.337 18.393 191.327 18.3508 190.307 18.3508C168.391 18.3508 150.625 36.1285 150.625 58.058C150.618 63.7384 151.834 69.3536 154.19 74.5218C116.991 83.7774 89.423 117.407 89.423 157.491C89.3988 172.871 93.5417 187.971 101.411 201.183H430.496C435.859 192.655 438.696 182.78 438.68 172.704C438.682 152.271 427.243 134.506 410.421 125.471Z" fill="url(#paint0_linear)"/>
<path d="M369.078 4.03058H333.674C332.701 4.03058 331.912 4.8198 331.912 5.79336C331.912 6.76692 332.701 7.55615 333.674 7.55615H369.078C370.051 7.55615 370.84 6.76692 370.84 5.79336C370.84 4.8198 370.051 4.03058 369.078 4.03058Z" fill="#F5DB83"/>
<path d="M381.084 12.1428H333.674C332.701 12.1428 331.912 12.932 331.912 13.9056V14.0997C331.912 15.0732 332.701 15.8624 333.674 15.8624H381.084C382.057 15.8624 382.846 15.0732 382.846 14.0997V13.9056C382.846 12.932 382.057 12.1428 381.084 12.1428Z" fill="#F5DB83"/>
<path d="M365.31 20.2565H333.674C332.701 20.2565 331.912 21.0457 331.912 22.0193V22.1133C331.912 23.0869 332.701 23.8761 333.674 23.8761H365.31C366.283 23.8761 367.072 23.0869 367.072 22.1133V22.0193C367.072 21.0457 366.283 20.2565 365.31 20.2565Z" fill="#F5DB83"/>
<path d="M388.154 28.3492H333.674C332.701 28.3492 331.912 29.1385 331.912 30.1121V30.1307C331.912 31.1043 332.701 31.8935 333.674 31.8935H388.154C389.127 31.8935 389.916 31.1043 389.916 30.1307V30.1121C389.916 29.1385 389.127 28.3492 388.154 28.3492Z" fill="#F5DB83"/>
<path d="M340.165 40.7708C340.165 38.5095 339.267 36.3408 337.669 34.7419C336.071 33.1429 333.904 32.2446 331.644 32.2446H8.52348C6.26363 32.2446 4.09634 33.1429 2.49838 34.7419C0.900424 36.3408 0.00268555 38.5095 0.00268555 40.7708V53.1356H340.165V40.7708Z" fill="#FFF7DE"/>
<path d="M0 53.1361V227.44C0 229.701 0.897691 231.87 2.49565 233.469C4.09361 235.068 6.26094 235.966 8.5208 235.966H98.8987L281.618 53.1341L0 53.1361Z" fill="#FFF1C5"/>
<path d="M281.621 53.1341L98.9019 235.966H331.643C333.902 235.966 336.07 235.068 337.668 233.469C339.266 231.87 340.163 229.701 340.163 227.44V53.1341H281.621Z" fill="#FFF5D3"/>
<path d="M15.7729 44.8839C17.207 44.8839 18.3696 43.7206 18.3696 42.2857C18.3696 40.8507 17.207 39.6874 15.7729 39.6874C14.3388 39.6874 13.1763 40.8507 13.1763 42.2857C13.1763 43.7206 14.3388 44.8839 15.7729 44.8839Z" fill="#FFA600"/>
<path d="M22.5974 44.8824C24.0315 44.8824 25.1941 43.7191 25.1941 42.2841C25.1941 40.8491 24.0315 39.6858 22.5974 39.6858C21.1633 39.6858 20.0007 40.8491 20.0007 42.2841C20.0007 43.7191 21.1633 44.8824 22.5974 44.8824Z" fill="#FFCB21"/>
<path d="M29.4214 44.8824C30.8555 44.8824 32.018 43.7191 32.018 42.2841C32.018 40.8491 30.8555 39.6858 29.4214 39.6858C27.9873 39.6858 26.8247 40.8491 26.8247 42.2841C26.8247 43.7191 27.9873 44.8824 29.4214 44.8824Z" fill="#FFA600"/>
<path d="M228.409 38.8636H111.76C109.647 38.8636 107.935 40.5765 107.935 42.6895C107.935 44.8025 109.647 46.5153 111.76 46.5153H228.409C230.522 46.5153 232.235 44.8025 232.235 42.6895C232.235 40.5765 230.522 38.8636 228.409 38.8636Z" fill="#FFECAC"/>
<path d="M292.388 86.2714H16.9339C14.8586 86.2714 13.1763 87.9537 13.1763 90.0289V119.212C13.1763 121.287 14.8586 122.969 16.9338 122.969H292.388C294.464 122.969 296.146 121.287 296.146 119.212V90.0289C296.146 87.9537 294.464 86.2714 292.388 86.2714Z" fill="#EAD592"/>
<rect x="14.9214" y="144.295" width="175.733" height="26.6018" rx="5" fill="#FFD993"/>
<rect x="14.9214" y="185.406" width="216.845" height="8.06115" rx="2" fill="#FFF7DE"/>
<rect x="14.9214" y="200.723" width="86.2543" height="8.06115" rx="2" fill="#FFF7DE"/>
<defs>
<linearGradient id="paint0_linear" x1="264.051" y1="81.5152" x2="264.051" y2="201.183" gradientUnits="userSpaceOnUse">
<stop stop-color="#FFFAEB"/>
<stop offset="1" stop-color="white" stop-opacity="0"/>
</linearGradient>
</defs>
</svg>
