<svg width="300" height="460" viewBox="0 0 300 460" fill="none" xmlns="http://www.w3.org/2000/svg">
<rect width="300" height="460" fill="#C4C4C4"/>
<path d="M131.662 245.36H118.942L116.502 252H113.542L123.742 224.4H126.902L137.062 252H134.102L131.662 245.36ZM130.822 243.04L125.302 227.92L119.782 243.04H130.822ZM140.275 241.04C140.275 238.8 140.729 236.84 141.635 235.16C142.542 233.453 143.782 232.147 145.355 231.24C146.955 230.307 148.755 229.84 150.755 229.84C152.675 229.84 154.409 230.307 155.955 231.24C157.502 232.173 158.635 233.387 159.355 234.88V222.4H162.155V252H159.355V247.12C158.689 248.64 157.595 249.893 156.075 250.88C154.555 251.84 152.769 252.32 150.715 252.32C148.715 252.32 146.915 251.853 145.315 250.92C143.742 249.987 142.502 248.667 141.595 246.96C140.715 245.253 140.275 243.28 140.275 241.04ZM159.355 241.08C159.355 239.32 158.995 237.773 158.275 236.44C157.555 235.107 156.569 234.08 155.315 233.36C154.089 232.64 152.729 232.28 151.235 232.28C149.689 232.28 148.302 232.627 147.075 233.32C145.849 234.013 144.875 235.027 144.155 236.36C143.462 237.667 143.115 239.227 143.115 241.04C143.115 242.827 143.462 244.4 144.155 245.76C144.875 247.093 145.849 248.12 147.075 248.84C148.302 249.533 149.689 249.88 151.235 249.88C152.729 249.88 154.089 249.52 155.315 248.8C156.569 248.08 157.555 247.053 158.275 245.72C158.995 244.387 159.355 242.84 159.355 241.08ZM176.068 252.32C173.561 252.32 171.508 251.747 169.908 250.6C168.334 249.427 167.454 247.84 167.268 245.84H170.148C170.281 247.067 170.854 248.067 171.868 248.84C172.908 249.587 174.294 249.96 176.028 249.96C177.548 249.96 178.734 249.6 179.588 248.88C180.468 248.16 180.908 247.267 180.908 246.2C180.908 245.453 180.668 244.84 180.188 244.36C179.708 243.88 179.094 243.507 178.348 243.24C177.628 242.947 176.641 242.64 175.388 242.32C173.761 241.893 172.441 241.467 171.428 241.04C170.414 240.613 169.548 239.987 168.828 239.16C168.134 238.307 167.788 237.173 167.788 235.76C167.788 234.693 168.108 233.707 168.748 232.8C169.388 231.893 170.294 231.173 171.468 230.64C172.641 230.107 173.974 229.84 175.468 229.84C177.814 229.84 179.708 230.44 181.148 231.64C182.588 232.813 183.361 234.44 183.468 236.52H180.668C180.588 235.24 180.081 234.213 179.148 233.44C178.241 232.64 176.988 232.24 175.388 232.24C173.974 232.24 172.828 232.573 171.948 233.24C171.068 233.907 170.628 234.733 170.628 235.72C170.628 236.573 170.881 237.28 171.388 237.84C171.921 238.373 172.574 238.8 173.348 239.12C174.121 239.413 175.161 239.747 176.468 240.12C178.041 240.547 179.294 240.96 180.228 241.36C181.161 241.76 181.961 242.347 182.628 243.12C183.294 243.893 183.641 244.92 183.668 246.2C183.668 247.373 183.348 248.427 182.708 249.36C182.068 250.267 181.174 250.987 180.028 251.52C178.881 252.053 177.561 252.32 176.068 252.32Z" fill="black"/>
</svg>
