<svg width="434" height="250" viewBox="0 0 434 250" fill="none" xmlns="http://www.w3.org/2000/svg">
<path d="M398.204 155.649C398.321 153.286 398.38 150.906 398.382 148.51C398.382 69.6314 334.478 5.68589 255.652 5.68589C236.226 5.66126 217 9.61918 199.16 17.3156C191.733 6.84191 179.514 0 165.698 0C149.557 0 135.596 9.33595 128.909 22.9111C127.667 22.8168 126.414 22.7645 125.149 22.7645C97.9617 22.7645 75.9219 44.818 75.9219 72.022C75.9135 79.0686 77.4218 86.0344 80.3443 92.4456C34.1988 103.927 0.000130393 145.645 0.000130393 195.37C-0.0298467 214.45 5.10945 233.181 14.8713 249.571H423.108C429.76 238.991 433.28 226.742 433.26 214.242C433.262 188.895 419.071 166.857 398.204 155.649Z" fill="url(#paint0_linear)"/>
<defs>
<linearGradient id="paint0_linear" x1="216.63" y1="101.121" x2="216.63" y2="249.571" gradientUnits="userSpaceOnUse">
<stop stop-color="#FFFAEB"/>
<stop offset="1" stop-color="white" stop-opacity="0"/>
</linearGradient>
</defs>
</svg>
