<svg width="19" height="19" viewBox="0 0 19 19" fill="none" xmlns="http://www.w3.org/2000/svg">
<path d="M17.3404 18.6076L10.9411 12.2033C8.09439 14.2284 4.17171 13.733 1.91706 11.0637C-0.337596 8.39438 -0.172043 4.44161 2.29791 1.97041C4.76721 -0.501865 8.71792 -0.668237 11.3861 1.58769C14.0543 3.84362 14.5496 7.76911 12.5255 10.6179L18.9248 17.0222L17.3415 18.6065L17.3404 18.6076ZM7.04781 2.24154C4.92446 2.24106 3.09257 3.73248 2.66123 5.81284C2.22989 7.8932 3.31766 9.99072 5.26595 10.8355C7.21425 11.6802 9.48759 11.0401 10.7096 9.30253C11.9316 7.565 11.7664 5.20767 10.3141 3.65777L10.9915 4.33003L10.2278 3.56814L10.2144 3.55469C9.37661 2.71121 8.23629 2.23834 7.04781 2.24154Z" fill="#2F80ED"/>
</svg>
