<svg width="21" height="16" viewBox="0 0 21 16" fill="none" xmlns="http://www.w3.org/2000/svg">
<path fill-rule="evenodd" clip-rule="evenodd" d="M6.58623 3.37519C5.18905 3.37519 4.05642 4.50853 4.05642 5.90658C4.05642 7.30463 5.18905 8.43797 6.58623 8.43797C7.9834 8.43797 9.11603 7.30463 9.11603 5.90658C9.11603 4.50853 7.9834 3.37519 6.58623 3.37519ZM5.74296 5.90658C5.74296 5.44057 6.1205 5.06278 6.58623 5.06278C7.05195 5.06278 7.42949 5.44057 7.42949 5.90658C7.42949 6.3726 7.05195 6.75038 6.58623 6.75038C6.1205 6.75038 5.74296 6.3726 5.74296 5.90658Z" fill="#828282"/>
<path fill-rule="evenodd" clip-rule="evenodd" d="M3.21315 0C1.81598 0 0.68335 1.13334 0.68335 2.53139V12.657C0.68335 14.055 1.81598 15.1884 3.21315 15.1884H18.392C19.7892 15.1884 20.9218 14.055 20.9218 12.657V2.53139C20.9218 1.13334 19.7892 0 18.392 0H3.21315ZM18.392 1.68759H3.21315C2.74743 1.68759 2.36989 2.06538 2.36989 2.53139V12.657C2.36989 13.123 2.74743 13.5008 3.21315 13.5008H6.8508L12.6513 7.69658C13.6393 6.70801 15.2411 6.70801 16.229 7.69658L19.2352 10.7047V2.53139C19.2352 2.06538 18.8577 1.68759 18.392 1.68759ZM18.392 13.5008H9.23592L13.8439 8.88989C14.1732 8.56036 14.7071 8.56036 15.0365 8.88989L19.1568 13.0128C19.0227 13.301 18.7306 13.5008 18.392 13.5008Z" fill="#828282"/>
</svg>
