<svg width="5" height="16" viewBox="0 0 5 16" fill="none" xmlns="http://www.w3.org/2000/svg">
<path d="M2.44601 16C1.34214 16 0.447266 15.1046 0.447266 14C0.447266 12.8954 1.34214 12 2.44601 12C3.54989 12 4.44476 12.8954 4.44476 14C4.44476 15.1046 3.54989 16 2.44601 16ZM2.44601 10C1.34214 10 0.447266 9.10457 0.447266 8C0.447266 6.89543 1.34214 6 2.44601 6C3.54989 6 4.44476 6.89543 4.44476 8C4.44476 8.53043 4.23418 9.03914 3.85934 9.41421C3.48451 9.78929 2.97612 10 2.44601 10ZM2.44601 4C1.34214 4 0.447266 3.10457 0.447266 2C0.447266 0.89543 1.34214 0 2.44601 0C3.54989 0 4.44476 0.89543 4.44476 2C4.44476 2.53043 4.23418 3.03914 3.85934 3.41421C3.48451 3.78929 2.97612 4 2.44601 4Z" fill="#828282"/>
</svg>
