<svg width="113" height="34" viewBox="0 0 113 34" fill="none" xmlns="http://www.w3.org/2000/svg">
<path d="M111.34 25.6076L104.941 19.2033C102.094 21.2284 98.1717 20.733 95.9171 18.0637C93.6624 15.3944 93.828 11.4416 96.2979 8.97041C98.7672 6.49814 102.718 6.33176 105.386 8.58769C108.054 10.8436 108.55 14.7691 106.526 17.6179L112.925 24.0222L111.342 25.6065L111.34 25.6076ZM101.048 9.24154C98.9245 9.24106 97.0926 10.7325 96.6612 12.8128C96.2299 14.8932 97.3177 16.9907 99.266 17.8355C101.214 18.6802 103.488 18.0401 104.71 16.3025C105.932 14.565 105.766 12.2077 104.314 10.6578L104.992 11.33L104.228 10.5681L104.214 10.5547C103.377 9.71121 102.236 9.23834 101.048 9.24154Z" fill="#2F80ED"/>
<path d="M15.6667 6L8.88312 12.7879L2.0995 6L0.388428 7.71214L7.17204 14.5L0.388428 21.2879L2.0995 23L8.88312 16.2121L15.6667 23L17.3778 21.2879L10.5942 14.5L17.3778 7.71214L15.6667 6Z" fill="#828282"/>
<path d="M66.3521 18.8928C64.4545 18.8928 62.9182 17.3555 62.9182 15.4568V7.43598C62.9182 5.53729 64.4545 4 66.3521 4C68.2496 4 69.7859 5.53729 69.7859 7.43598V15.4568C69.7859 17.3555 68.2496 18.8928 66.3521 18.8928Z" fill="#4285F4"/>
<path d="M67.5004 22.7981H65.2095V27.0001H67.5004V22.7981Z" fill="#34A853"/>
<path d="M72.088 15.4995C72.0826 18.6604 69.5113 21.2333 66.3523 21.2333C64.7675 21.2333 63.3282 20.5861 62.2878 19.5396L60.6868 21.1416C62.1369 22.5926 64.1368 23.4934 66.3523 23.4934C70.7673 23.4934 74.3467 19.9118 74.3521 15.4941H72.088V15.4995Z" fill="#EA4335"/>
<path d="M62.2874 19.5401C61.2578 18.5045 60.6163 17.0751 60.6163 15.5H58.3523C58.3523 17.7008 59.2471 19.6966 60.6864 21.1422L62.2874 19.5401Z" fill="#FBBC05"/>
<line x1="38.5" y1="0.5" x2="38.5" y2="33.5" stroke="#CACACA" stroke-linecap="round"/>
</svg>
