<svg width="16" height="15" viewBox="0 0 16 15" fill="none" xmlns="http://www.w3.org/2000/svg">
<path d="M14.4484 15.0009L9.28956 9.83787C6.99463 11.4705 3.83229 11.0711 2.01467 8.9192C0.197048 6.76728 0.330511 3.58068 2.3217 1.58848C4.31237 -0.404587 7.49729 -0.538711 9.64828 1.27995C11.7993 3.09861 12.1986 6.26321 10.5669 8.55977L15.7257 13.7228L14.4493 15L14.4484 15.0009ZM6.15091 1.80706C4.43914 1.80667 2.96233 3.009 2.6146 4.68612C2.26687 6.36324 3.14379 8.0542 4.71444 8.73522C6.28509 9.41624 8.11778 8.90015 9.10292 7.4994C10.0881 6.09866 9.95491 4.19826 8.78406 2.94878L9.33018 3.49073L8.71455 2.87652L8.70372 2.86568C8.02831 2.18569 7.10902 1.80447 6.15091 1.80706Z" fill="url(#paint0_linear)"/>
<defs>
<linearGradient id="paint0_linear" x1="0.735108" y1="6.04625" x2="16.0479" y2="15.3087" gradientUnits="userSpaceOnUse">
<stop stop-color="#2F80ED"/>
<stop offset="0.171875" stop-color="#E94F25"/>
<stop offset="0.395833" stop-color="#F0C430"/>
<stop offset="0.53125" stop-color="#6172FB"/>
<stop offset="0.598958" stop-color="#4EB241"/>
<stop offset="1" stop-color="#E94F25"/>
</linearGradient>
</defs>
</svg>
